<svg width="135" height="24" viewBox="0 0 135 24" fill="none" xmlns="http://www.w3.org/2000/svg">
<circle cx="132" cy="16" r="3" fill="#1677FF"/>
<path d="M20.7507 0H14.6612C14.5235 0.965162 14.3391 1.7004 13.8104 3.24005L10.3868 13.1443L6.93962 3.24005C6.41155 1.72314 6.22807 0.987904 6.06669 0H0C0.11496 0.988216 0.1838 2.20573 0.1838 3.58462V15.5572C0.1838 17.1199 0.138014 18.0848 0 19.1194H4.52704C4.38934 18.1539 4.34322 17.143 4.34322 15.5572V10.5707C4.34322 9.35253 4.25101 7.46832 4.11331 6.02058C4.22827 6.34241 4.22826 6.3424 4.48123 7.16955C4.55039 7.35367 5.23985 9.49055 5.2629 9.60551L7.37641 15.718C7.99732 17.4642 8.24966 18.3147 8.36493 19.1191H12.3633C12.4783 18.3836 12.7767 17.3726 13.3515 15.7407L15.58 9.44444C15.879 8.61729 16.109 7.78952 16.6143 5.99752C16.5916 6.34209 16.5916 6.34209 16.523 7.56022C16.4766 8.27241 16.4078 9.99618 16.4078 10.5476V15.5572C16.4078 17.1888 16.3616 18.062 16.2242 19.1194H20.7507C20.6127 18.2001 20.5665 17.3037 20.5665 15.5572V3.58462C20.5669 2.04529 20.6127 1.10286 20.7507 0Z" fill="white"/>
<path d="M32.3987 8.1578L30.3541 13.374L28.2396 8.0659C27.7568 6.82503 27.4583 5.8368 27.3433 5.10156H22.3564C22.6555 5.67605 22.7474 5.88291 23.7356 8.18054L28.0325 17.8783L27.5502 18.8662C27.2062 19.5556 26.562 19.9463 25.6887 19.9463C25.0912 19.9463 24.655 19.8316 23.8961 19.441L23.3911 23.0948C24.655 23.3708 25.528 23.4854 26.5389 23.4854C29.1587 23.4854 30.8136 22.4972 31.732 20.3373L36.9953 8.18086C37.7997 6.29664 37.7997 6.29665 38.3738 5.10188H33.3876C33.2493 5.90566 33.0421 6.57236 32.3987 8.1578Z" fill="white"/>
<path d="M52.1835 0.0774587H47.3808C45.4732 0.0774587 44.8987 0.0544092 43.98 0.00830078C44.1407 1.06568 44.1868 1.82366 44.1868 3.38636V15.9101C44.1868 17.4959 44.1407 18.2538 44.0024 19.2654C44.9682 19.2196 45.6112 19.1966 47.3808 19.1966H52.2296C54.9641 19.1966 57.1467 18.4152 58.687 16.8983C60.4332 15.1521 61.3529 12.6242 61.3529 9.4761C61.3529 6.41955 60.5024 4.00696 58.8247 2.35235C57.2851 0.85881 55.0099 0.0774587 52.1835 0.0774587ZM55.1937 13.957C54.3668 14.7845 53.3098 15.1752 51.8159 15.1752H48.7363V4.09887H51.7471C53.4017 4.09887 54.5042 4.46649 55.3086 5.27089C56.2049 6.16689 56.6417 7.59158 56.6417 9.54495C56.6417 11.4525 56.1361 12.9919 55.1937 13.957Z" fill="white"/>
<path d="M77.3905 12.9378C77.3217 11.6278 77.2298 10.6626 77.0463 9.92735C76.2419 6.50349 73.7367 4.5498 70.1521 4.5498C65.7631 4.5498 62.8442 7.56025 62.8442 12.1103C62.8442 14.3855 63.5798 16.3386 64.9356 17.7175C66.2457 19.0275 68.0152 19.6709 70.2671 19.6709C72.5423 19.6709 74.3804 19.0045 75.6898 17.7175C76.3334 17.0742 76.678 16.5455 77.2067 15.3504L73.2083 14.2248C73.0245 14.822 72.8635 15.075 72.5189 15.3968C71.9214 15.9482 71.117 16.247 70.1976 16.247C68.3825 16.247 67.3024 15.2588 67.0725 13.3976H77.4136C77.3905 13.1674 77.3905 13.0294 77.3905 12.9378ZM67.142 10.2258C67.5327 8.70922 68.5209 7.97366 70.1521 7.97366C71.7379 7.97366 72.7261 8.75502 73.0473 10.2258H67.142Z" fill="white"/>
<path d="M122.654 15.5575C122.08 15.8562 121.644 15.9712 121.046 15.9712C120.609 15.9712 120.242 15.8793 119.989 15.7182C119.69 15.5113 119.575 15.1898 119.575 14.5462V8.66331H120.541C121.367 8.66331 121.965 8.7091 122.654 8.80101V4.98647C121.943 5.07838 121.414 5.10143 120.402 5.10143H119.575V4.61854C119.575 3.51568 119.644 2.4125 119.759 1.4707H115.071C115.209 2.55082 115.255 3.46957 115.255 4.61854V5.10143H114.428C113.623 5.10143 113.049 5.05532 112.383 4.96342V8.80101C113.049 8.7091 113.647 8.66331 114.382 8.66331H115.256V15.6952C115.256 17.2579 115.577 18.0389 116.451 18.7053C117.186 19.2567 118.266 19.5097 119.828 19.5097C121.07 19.5097 121.965 19.3717 123 19.0499L122.654 15.5575Z" fill="white"/>
<path d="M103.731 5.03857C101.419 5.03857 98.7511 6.82528 96.7644 8.49234L100.117 11.4012C101.705 10.1597 103.102 9.40018 103.732 9.40018C105.544 9.40018 107.018 10.7557 107.018 12.4212C107.018 14.0867 105.544 15.4423 103.732 15.4423C102.81 15.4423 100.807 14.0864 99.0019 12.5025L99.0016 12.5032L95.5493 9.56748C95.5481 9.56872 95.5468 9.56997 95.5468 9.56997C93.5486 7.8543 90.3375 5.49467 87.7832 5.49467C86.2996 5.49467 84.9207 5.9327 83.7755 6.6804C83.7764 6.19845 83.777 5.90372 83.777 5.88223V5.10088H79.25C79.388 6.2729 79.4338 7.2147 79.4338 8.70856V19.9226C79.4338 21.1404 79.365 22.2897 79.25 23.2776H83.9609C83.8235 22.2897 83.777 21.2326 83.777 19.9456V18.3602C83.7721 18.291 83.7686 18.2237 83.7655 18.1574C84.9126 18.9082 86.2956 19.3474 87.7832 19.3474C89.8528 19.3474 92.3529 17.7988 94.2898 16.2978L91.2675 13.4334C89.6556 14.6282 88.1053 15.5217 87.3343 15.5217C85.474 15.5217 83.9609 14.131 83.9609 12.4212C83.9609 10.7118 85.474 9.32074 87.3343 9.32074C88.3116 9.32074 90.5419 10.7551 92.5623 12.4212L95.5459 15.2712C97.5392 17.1283 100.901 19.8039 103.731 19.8039C107.948 19.8039 111.379 16.4918 111.379 12.4212C111.379 8.35059 107.948 5.03857 103.731 5.03857Z" fill="white"/>
</svg>
