<svg width="135" height="24" viewBox="0 0 135 24" fill="none" xmlns="http://www.w3.org/2000/svg">
<circle cx="132" cy="16" r="3" fill="#1677FF"/>
<path d="M20.7507 0H14.6612C14.5235 0.965162 14.3391 1.7004 13.8104 3.24005L10.3868 13.1443L6.93962 3.24005C6.41155 1.72314 6.22807 0.987904 6.06669 0H0C0.11496 0.988216 0.1838 2.20573 0.1838 3.58462V15.5572C0.1838 17.1199 0.138014 18.0848 0 19.1194H4.52704C4.38934 18.1539 4.34322 17.143 4.34322 15.5572V10.5707C4.34322 9.35253 4.25101 7.46832 4.11331 6.02058C4.22827 6.34241 4.22826 6.3424 4.48123 7.16955C4.55039 7.35367 5.23985 9.49055 5.2629 9.60551L7.37641 15.718C7.99732 17.4642 8.24966 18.3147 8.36493 19.1191H12.3633C12.4783 18.3836 12.7767 17.3726 13.3515 15.7407L15.58 9.44444C15.879 8.61729 16.109 7.78952 16.6143 5.99752C16.5916 6.34209 16.5916 6.34209 16.523 7.56022C16.4766 8.27241 16.4078 9.99618 16.4078 10.5476V15.5572C16.4078 17.1888 16.3616 18.062 16.2242 19.1194H20.7507C20.6127 18.2001 20.5665 17.3037 20.5665 15.5572V3.58462C20.5669 2.04529 20.6127 1.10286 20.7507 0Z" fill="#391BF1"/>
<path d="M32.3987 8.1578L30.3541 13.374L28.2396 8.0659C27.7567 6.82503 27.4583 5.8368 27.3433 5.10156H22.3564C22.6555 5.67605 22.7474 5.88291 23.7356 8.18054L28.0325 17.8783L27.5502 18.8662C27.2062 19.5556 26.562 19.9463 25.6887 19.9463C25.0912 19.9463 24.655 19.8316 23.8961 19.441L23.3911 23.0948C24.655 23.3708 25.528 23.4854 26.5389 23.4854C29.1587 23.4854 30.8136 22.4972 31.732 20.3373L36.9953 8.18086C37.7997 6.29664 37.7997 6.29665 38.3738 5.10188H33.3876C33.2493 5.90566 33.0421 6.57236 32.3987 8.1578Z" fill="#391BF1"/>
<path d="M77.2313 13.0315C77.1625 11.7215 77.0706 10.7563 76.8871 10.0211C76.0827 6.59724 73.5775 4.64355 69.9929 4.64355C65.6039 4.64355 62.6851 7.654 62.6851 12.2041C62.6851 14.4793 63.4206 16.4324 64.7764 17.8112C66.0865 19.1213 67.8561 19.7646 70.1079 19.7646C72.3831 19.7646 74.2212 19.0982 75.5306 17.8112C76.1743 17.1679 76.5188 16.6392 77.0475 15.4441L73.0492 14.3185C72.8654 14.9158 72.7043 15.1687 72.3597 15.4906C71.7622 16.042 70.9578 16.3408 70.0384 16.3408C68.2234 16.3408 67.1432 15.3525 66.9133 13.4914H77.2544C77.2313 13.2612 77.2313 13.1231 77.2313 13.0315ZM66.9828 10.3196C67.3735 8.80297 68.3617 8.06741 69.9929 8.06741C71.5787 8.06741 72.5669 8.84877 72.8881 10.3196H66.9828Z" fill="#391BF1"/>
<path d="M122.654 15.5575C122.08 15.8562 121.644 15.9712 121.046 15.9712C120.609 15.9712 120.242 15.8793 119.989 15.7182C119.69 15.5113 119.575 15.1898 119.575 14.5462V8.66331H120.541C121.367 8.66331 121.965 8.7091 122.654 8.80101V4.98647C121.943 5.07838 121.414 5.10143 120.402 5.10143H119.575V4.61854C119.575 3.51568 119.644 2.4125 119.759 1.4707H115.071C115.209 2.55082 115.255 3.46957 115.255 4.61854V5.10143H114.428C113.623 5.10143 113.049 5.05532 112.383 4.96342V8.80101C113.049 8.7091 113.647 8.66331 114.382 8.66331H115.256V15.6952C115.256 17.2579 115.577 18.0389 116.451 18.7053C117.186 19.2567 118.266 19.5097 119.828 19.5097C121.07 19.5097 121.965 19.3717 123 19.0499L122.654 15.5575Z" fill="#391BF1"/>
<path fill-rule="evenodd" clip-rule="evenodd" d="M48.755 14.7039L48.755 4.64332L51.4636 4.64332C52.1242 4.64332 52.7783 4.77344 53.3886 5.02623C53.9989 5.27903 54.5534 5.64955 55.0205 6.11666C55.4877 6.58376 55.8582 7.13829 56.111 7.74859C56.3638 8.35889 56.4939 9.01301 56.4939 9.67359C56.4939 10.3342 56.3638 10.9883 56.111 11.5986C55.8582 12.2089 55.4877 12.7634 55.0205 13.2305C54.5534 13.6976 53.9989 14.0682 53.3886 14.321C52.7783 14.5737 52.1242 14.7039 51.4636 14.7039L48.755 14.7039ZM44.1117 19.3472L51.4636 19.3472C52.734 19.3472 53.9919 19.097 55.1655 18.6108C56.3392 18.1247 57.4056 17.4121 58.3039 16.5139C59.2022 15.6156 59.9147 14.5492 60.4008 13.3755C60.887 12.2019 61.1372 10.9439 61.1372 9.67359C61.1372 8.40324 60.887 7.14532 60.4008 5.97167C59.9147 4.79801 59.2022 3.73161 58.3039 2.83333C57.4056 1.93505 56.3392 1.2225 55.1655 0.736358C53.9919 0.250214 52.734 -3.67317e-07 51.4636 -4.22846e-07L44.1117 -7.44209e-07L44.1117 19.3472Z" fill="#391BF1"/>
<path d="M103.731 5.03906C101.419 5.03906 98.7511 6.82576 96.7644 8.49283L100.117 11.4017C101.705 10.1602 103.102 9.40067 103.732 9.40067C105.544 9.40067 107.018 10.7562 107.018 12.4217C107.018 14.0872 105.544 15.4427 103.732 15.4427C102.81 15.4427 100.807 14.0869 99.0019 12.503L95.5493 9.56797C95.5481 9.56921 95.5468 9.57046 95.5468 9.57046C93.5486 7.85479 90.3375 5.49516 87.7832 5.49516C86.2996 5.49516 84.9207 5.93319 83.7755 6.68089C83.7764 6.19894 83.777 5.90421 83.777 5.88272V5.10137H79.25C79.388 6.27339 79.4338 7.21519 79.4338 8.70904V19.923C79.4338 21.1409 79.365 22.2901 79.25 23.2781H83.9609C83.8235 22.2901 83.777 21.2331 83.777 19.9461V18.3607C83.7721 18.2915 83.7686 18.2242 83.7655 18.1578C84.9126 18.9087 86.2956 19.3479 87.7832 19.3479C89.8528 19.3479 92.3529 17.7993 94.2898 16.2982L91.2675 13.4339C89.6556 14.6287 88.1053 15.5222 87.3343 15.5222C85.474 15.5222 83.9609 14.1315 83.9609 12.4217C83.9609 10.7123 85.474 9.32123 87.3343 9.32123C88.3116 9.32123 90.5419 10.7556 92.5623 12.4217L95.5459 15.2717C97.5392 17.1288 100.901 19.8043 103.731 19.8043C107.948 19.8043 111.379 16.4923 111.379 12.4217C111.379 8.35108 107.948 5.03906 103.731 5.03906Z" fill="#391BF1"/>
</svg>
